<?xml version="1.0" standalone="no"?>
<!DOCTYPE svg PUBLIC "-//W3C//DTD SVG 20010904//EN"
 "http://www.w3.org/TR/2001/REC-SVG-20010904/DTD/svg10.dtd">
<svg version="1.0" xmlns="http://www.w3.org/2000/svg"
 width="350.000000pt" height="350.000000pt" viewBox="0 0 350.000000 350.000000"
 preserveAspectRatio="xMidYMid meet">
<metadata>
Created by potrace 1.11, written by Peter Selinger 2001-2013
</metadata>
<g transform="translate(0.000000,350.000000) scale(0.100000,-0.100000)"
fill="#000000" stroke="none">
<path d="M1670 1820 l0 -280 60 0 60 0 0 280 0 280 -60 0 -60 0 0 -280z"/>
<path d="M103 2077 l-23 -10 0 -264 0 -263 50 0 50 0 0 170 c0 94 3 170 8 170
4 0 67 -79 141 -175 180 -237 156 -239 362 28 l114 149 3 -171 2 -171 55 0 55
0 -2 262 -3 263 -29 13 c-21 11 -34 11 -51 4 -13 -6 -91 -101 -175 -211 -84
-111 -156 -201 -160 -201 -6 0 -253 320 -310 401 -9 13 -64 17 -87 6z"/>
<path d="M1280 1920 l0 -43 55 6 c59 6 114 -5 127 -25 4 -7 8 -23 8 -35 0 -22
-2 -22 -206 -25 l-206 -3 -24 -28 c-20 -24 -24 -39 -24 -96 0 -118 25 -130
267 -131 177 0 241 11 274 46 22 24 24 35 27 152 6 195 -10 214 -185 220
l-113 4 0 -42z m190 -223 c0 -18 -7 -43 -16 -55 -14 -21 -22 -22 -163 -22
-158 0 -171 4 -171 51 0 60 -3 59 181 59 l169 0 0 -33z"/>
<path d="M1975 1945 c-48 -17 -71 -43 -86 -98 -14 -51 -6 -184 12 -223 33 -66
119 -89 297 -81 189 9 227 43 227 207 0 110 -16 154 -68 185 -27 17 -54 20
-187 23 -116 1 -165 -2 -195 -13z m302 -81 c28 -8 43 -51 43 -124 0 -42 -5
-64 -19 -81 -18 -23 -25 -24 -146 -24 -121 0 -128 1 -146 24 -34 41 -24 178
15 203 13 9 221 10 253 2z"/>
<path d="M2601 1942 c-69 -35 -76 -54 -79 -238 l-3 -164 55 0 56 0 0 129 c0
126 9 178 33 193 7 4 38 8 70 8 l57 0 0 45 0 45 -77 0 c-55 0 -88 -5 -112 -18z"/>
<path d="M2868 1948 c-2 -7 -3 -69 -1 -137 4 -209 11 -215 266 -219 l177 -4 0
-27 c0 -44 -16 -51 -118 -51 l-93 0 3 -47 3 -48 115 1 c127 1 168 14 189 61 7
15 11 110 11 253 l0 230 -55 0 -55 0 0 -140 0 -140 -149 0 c-123 0 -152 3
-165 16 -13 12 -16 40 -16 140 l0 124 -54 0 c-34 0 -55 -5 -58 -12z"/>
</g>
</svg>
