<?xml version="1.0" standalone="no"?>
<!DOCTYPE svg PUBLIC "-//W3C//DTD SVG 20010904//EN"
 "http://www.w3.org/TR/2001/REC-SVG-20010904/DTD/svg10.dtd">
<svg version="1.0" xmlns="http://www.w3.org/2000/svg"
 width="762.000000pt" height="762.000000pt" viewBox="0 0 762.000000 762.000000"
 preserveAspectRatio="xMidYMid meet">
<metadata>
Created by potrace 1.11, written by Peter Selinger 2001-2013
</metadata>
<g transform="translate(0.000000,762.000000) scale(0.100000,-0.100000)"
fill="#000000" stroke="none">
<path d="M554 5989 c-10 -17 13 -36 27 -22 12 12 4 33 -11 33 -5 0 -12 -5 -16
-11z"/>
<path d="M3764 5670 c-907 -81 -1624 -784 -1723 -1692 -43 -389 49 -806 253
-1151 275 -465 736 -790 1277 -899 100 -20 143 -23 349 -23 206 0 249 3 349
23 830 168 1440 831 1530 1664 98 896 -475 1748 -1350 2008 -199 59 -483 88
-685 70z m522 -114 c465 -99 874 -375 1135 -765 498 -747 377 -1738 -286
-2342 -596 -542 -1482 -623 -2169 -197 -126 78 -232 166 -353 292 -230 239
-395 551 -461 871 -152 732 155 1473 780 1882 194 127 425 221 643 262 162 30
153 29 380 26 180 -3 227 -7 331 -29z"/>
<path d="M3270 3750 l0 -940 140 0 140 0 2 708 3 707 123 -685 c68 -377 126
-695 129 -707 5 -22 10 -23 108 -23 90 0 104 2 109 18 2 9 60 325 128 702
l123 685 3 -703 2 -702 140 0 140 0 0 940 0 940 -189 0 c-172 0 -190 -2 -195
-17 -3 -10 -62 -326 -132 -703 -69 -377 -127 -686 -128 -687 -1 -1 -60 315
-131 702 l-130 705 -192 0 -193 0 0 -940z"/>
<path d="M60 4750 c-11 -11 -20 -24 -20 -30 0 -13 37 -50 50 -50 13 0 50 37
50 50 0 13 -37 50 -50 50 -5 0 -19 -9 -30 -20z"/>
</g>
</svg>
